<svg xmlns="http://www.w3.org/2000/svg" viewBox="0 0 50.8 36" height="136" width="191.9"><defs><clipPath id="a"><path d="M0 361h513V0H0z"/></clipPath><clipPath id="b"><path d="M0 361h513V0H0z"/></clipPath><clipPath id="c"><path d="M0 361h513V0H0z"/></clipPath></defs><g stroke-width="1.3"><g clip-path="url(#a)" transform="matrix(.26568 0 0 -.26595 -39.7 66)"><path d="M340.4 246.2c-5 .2-10.1.1-15-.3-5-.5-10-1.1-14.7-2.4-9.4-2.5-17.6-8-24.4-14.8-6.8-6.9-12.5-15-17.6-23.4-5.2-8.5-9.9-17.3-14.7-26.2-4.8-8.8-9.7-17.7-15.3-26.3-2.9-4.3-5.8-8.5-9.1-12.5s-6.8-8-10.7-11.4a57.8 57.8 0 0 0-58-13.4 60.2 60.2 0 0 1 53.6 18c6.9 6.9 12.6 15 17.8 23.4 2.6 4.2 5 8.5 7.5 12.9l7.2 13.1a291.2 291.2 0 0 0 15.3 26.4 117 117 0 0 0 19.7 24c4 3.5 8.2 6.6 13 9a52.1 52.1 0 0 0 22.6 5.8 85.7 85.7 0 0 0 22.8-2" fill="#f6921e"/></g><g clip-path="url(#b)" transform="matrix(.26568 0 0 -.26595 -39.7 66)" fill="#3a3a3c" stroke="#3a3a3c" stroke-width=".4"><path d="M167.1 202.3h-11.8l-5.8-36.5h9l3.7 23.2h.1l4.8-23.2h6l12.3 23.5h.2l-3.7-23.5h9l5.8 36.5h-12L172 176.7h-.2zM235.3 202.3h-9l-3.6-23h-.2l-10.6 23h-9l-5.8-36.5h9l3.6 23h.2l10.6-23h9z"/></g><g clip-path="url(#c)" transform="matrix(.26568 0 0 -.26595 -39.7 66)" fill="#3a3a3c" stroke="#3a3a3c" stroke-width=".4"><path d="M280.8 166h9l-6.5 34.6h-9.2L256.6 166h9l3.2 6.8h11zm-3.9 23.7h.2l1.7-10.8h-7zM309.2 200.6H298l-5.5-34.6h8.5l3.5 22h.2l4.4-22h5.8l11.6 22.3h.2L323 166h8.6l5.5 34.6h-11.3l-12.2-24.2h-.1z"/></g></g></svg>